<svg width="46" height="47" viewBox="0 0 46 47" fill="none" xmlns="http://www.w3.org/2000/svg">
<path d="M31.6253 13.7887V15.1304C32.3663 15.1304 32.967 14.5297 32.967 13.7887H31.6253ZM31.6253 6.12207H32.967C32.967 5.38109 32.3663 4.7804 31.6253 4.7804V6.12207ZM18.2087 21.4554V22.7971C18.9496 22.7971 19.5503 22.1964 19.5503 21.4554H18.2087ZM12.459 21.4554V20.1137C11.718 20.1137 11.1173 20.7144 11.1173 21.4554H12.459ZM12.459 29.1221H11.1173C11.1173 29.8631 11.718 30.4637 12.459 30.4637V29.1221ZM18.2087 29.1221H19.5503C19.5503 28.3811 18.9496 27.7804 18.2087 27.7804V29.1221ZM18.2087 40.6221H16.867C16.867 41.3631 17.4677 41.9637 18.2087 41.9637V40.6221ZM25.8753 40.6221V41.9637C26.6163 41.9637 27.217 41.3631 27.217 40.6221H25.8753ZM25.8753 29.1221V27.7804C25.1343 27.7804 24.5337 28.3811 24.5337 29.1221H25.8753ZM30.6673 29.1221V30.4637C31.283 30.4637 31.8196 30.0447 31.9689 29.4475L30.6673 29.1221ZM32.584 21.4554L33.8856 21.7808C33.9858 21.38 33.8957 20.9554 33.6415 20.6297C33.3872 20.3041 32.9971 20.1137 32.584 20.1137V21.4554ZM25.8753 21.4554H24.5337C24.5337 22.1964 25.1343 22.7971 25.8753 22.7971V21.4554ZM26.8337 12.4471C25.5634 12.4471 24.5337 13.4768 24.5337 14.7471H27.217C27.217 14.9588 27.0454 15.1304 26.8337 15.1304V12.4471ZM31.6253 12.4471H26.8337V15.1304H31.6253V12.4471ZM30.2837 6.12207V13.7887H32.967V6.12207H30.2837ZM26.8337 7.46374H31.6253V4.7804H26.8337V7.46374ZM19.5503 14.7471C19.5503 10.7246 22.8112 7.46374 26.8337 7.46374V4.7804C21.3292 4.7804 16.867 9.24262 16.867 14.7471H19.5503ZM19.5503 21.4554V14.7471H16.867V21.4554H19.5503ZM12.459 22.7971H18.2087V20.1137H12.459V22.7971ZM13.8007 29.1221V21.4554H11.1173V29.1221H13.8007ZM18.2087 27.7804H12.459V30.4637H18.2087V27.7804ZM19.5503 40.6221V29.1221H16.867V40.6221H19.5503ZM25.8753 39.2804H18.2087V41.9637H25.8753V39.2804ZM24.5337 29.1221V40.6221H27.217V29.1221H24.5337ZM30.6673 27.7804H25.8753V30.4637H30.6673V27.7804ZM31.2824 21.13L29.3657 28.7967L31.9689 29.4475L33.8856 21.7808L31.2824 21.13ZM25.8753 22.7971H32.584V20.1137H25.8753V22.7971ZM24.5337 14.7471V21.4554H27.217V14.7471H24.5337Z" fill="#232323"/>
</svg>
