<svg width="46" height="47" viewBox="0 0 46 47" fill="none" xmlns="http://www.w3.org/2000/svg">
<path d="M22.999 10.4346C22.999 8.05284 24.9298 6.12207 27.3115 6.12207V6.12207C29.6933 6.12207 31.624 8.05284 31.624 10.4346V18.5804C31.624 21.2268 29.4787 23.3721 26.8324 23.3721H22.999V10.4346Z" stroke="#232323" stroke-width="2.68333" stroke-linejoin="round"/>
<path d="M14.375 28.1637C14.375 25.5174 16.5203 23.3721 19.1667 23.3721H23V36.3096C23 38.6913 21.0692 40.6221 18.6875 40.6221V40.6221C16.3058 40.6221 14.375 38.6913 14.375 36.3096V28.1637Z" stroke="#232323" stroke-width="2.68333" stroke-linejoin="round"/>
<path d="M5.75 19.0596C5.75 16.6778 7.68077 14.7471 10.0625 14.7471H18.2083C20.8547 14.7471 23 16.8924 23 19.5387V23.3721H10.0625C7.68077 23.3721 5.75 21.4413 5.75 19.0596V19.0596Z" stroke="#232323" stroke-width="2.68333" stroke-linejoin="round"/>
<path d="M22.999 23.3721H35.9365C38.3183 23.3721 40.249 25.3028 40.249 27.6846V27.6846C40.249 30.0663 38.3183 31.9971 35.9365 31.9971H27.7907C25.1443 31.9971 22.999 29.8518 22.999 27.2054V23.3721Z" stroke="#232323" stroke-width="2.68333" stroke-linejoin="round"/>
<path d="M31.625 23.3721V19.0596C31.625 16.6778 33.5558 14.7471 35.9375 14.7471C38.3192 14.7471 40.25 16.6778 40.25 19.0596C40.25 21.4413 38.3192 23.3721 35.9375 23.3721H31.625Z" stroke="#232323" stroke-width="2.68333" stroke-linejoin="round"/>
<path d="M23 14.7471L18.6875 14.7471C16.3058 14.7471 14.375 12.8163 14.375 10.4346C14.375 8.05284 16.3058 6.12207 18.6875 6.12207C21.0692 6.12207 23 8.05284 23 10.4346L23 14.7471Z" stroke="#232323" stroke-width="2.68333" stroke-linejoin="round"/>
<path d="M14.375 23.3721L14.375 27.6846C14.375 30.0663 12.4442 31.9971 10.0625 31.9971C7.68077 31.9971 5.75 30.0663 5.75 27.6846C5.75 25.3028 7.68077 23.3721 10.0625 23.3721L14.375 23.3721Z" stroke="#232323" stroke-width="2.68333" stroke-linejoin="round"/>
<path d="M23 31.9971L27.3125 31.9971C29.6942 31.9971 31.625 33.9278 31.625 36.3096C31.625 38.6913 29.6942 40.6221 27.3125 40.6221C24.9308 40.6221 23 38.6913 23 36.3096L23 31.9971Z" stroke="#232323" stroke-width="2.68333" stroke-linejoin="round"/>
</svg>
